<svg data-v-423bf9ae="" xmlns="http://www.w3.org/2000/svg" viewBox="0 0 419.41691295529955 60" class="font"><!----><!----><!----><g data-v-423bf9ae="" id="ec8feb64-41ac-4dc1-97db-95928aec9107" fill="black" transform="matrix(5.830903811703725,0,0,5.830903811703725,-1.6326541979024967,-27.1720113496512)"><path d="M9.02 5.08L7.60 5.08L4.66 13.44L4.63 13.44L1.69 5.08L0.28 5.08L3.78 14.88L5.52 14.88ZM9.72 14.88L11.28 14.88L13.85 11.03L16.42 14.88L17.99 14.88L14.62 9.88L17.85 5.08L16.28 5.08L13.85 8.72L11.42 5.08L9.86 5.08L13.08 9.88ZM27.02 14.01L27.02 5.95L25.40 5.01L21.29 5.01L19.67 5.95L19.67 14.01L21.29 14.95L25.40 14.95ZM21.07 6.27L25.62 6.27L25.62 13.69L21.07 13.69ZM30.94 7.48L30.97 7.48L36.04 14.88L37.31 14.88L37.31 5.08L35.91 5.08L35.91 12.49L35.88 12.49L30.81 5.08L29.54 5.08L29.54 14.88L30.94 14.88ZM46.82 6.34L49.60 6.34L49.60 5.08L42.63 5.08L42.63 6.34L45.42 6.34L45.42 14.88L46.82 14.88ZM56.67 13.66L52.50 13.66L52.50 11.86L56.67 11.86L56.67 8.75L55.05 7.81L52.77 7.81L51.14 8.75L51.14 13.94L52.77 14.88L56.67 14.88ZM52.50 9.03L55.31 9.03L55.31 10.64L52.50 10.64ZM60.27 9.10L64.16 9.10L64.16 7.88L60.54 7.88L58.91 8.82L58.91 13.94L60.54 14.88L64.16 14.88L64.16 13.66L60.27 13.66ZM67.48 14.88L67.48 9.03L70.85 9.03L70.85 14.88L72.21 14.88L72.21 8.75L70.59 7.81L68.47 7.81L67.48 8.39L67.48 4.66L66.12 4.66L66.12 14.88Z"></path></g><!----><!----></svg>