<svg xmlns="http://www.w3.org/2000/svg" version="1.1" xmlns:xlink="http://www.w3.org/1999/xlink" xmlns:svgjs="http://svgjs.dev/svgjs" width="1000" height="1000" viewBox="0 0 1000 1000"><rect width="1000" height="1000" fill="#ffffff"></rect><g transform="matrix(0.7,0,0,0.7,149.57576513240213,438.56135315753147)"><svg viewBox="0 0 396 70" data-background-color="#ffffff" preserveAspectRatio="xMidYMid meet" height="176" width="1000" xmlns="http://www.w3.org/2000/svg" xmlns:xlink="http://www.w3.org/1999/xlink"><g id="tight-bounds" transform="matrix(1,0,0,1,0.23999572509822542,-0.09167793041561367)"><svg viewBox="0 0 395.5199999999999 70.18334000673927" height="70.18334000673927" width="395.5199999999999"><g><svg viewBox="0 0 491.3122997292547 87.18127574178621" height="70.18334000673927" width="395.5199999999999"><g transform="matrix(1,0,0,1,95.7922997292547,1.5350296982996667)"><svg viewBox="0 0 395.52 84.11121634518688" height="84.11121634518688" width="395.52"><g id="textblocktransform"><svg viewBox="0 0 395.52 84.11121634518688" height="84.11121634518688" width="395.52" id="textblock"><g><svg viewBox="0 0 395.52 56.82328922495274" height="56.82328922495274" width="395.52"><g transform="matrix(1,0,0,1,0,0)"><svg width="395.52" viewBox="0.12000000476837158 -40.15999984741211 284.1100158691406 40.81999969482422" height="56.82328922495274" data-palette-color="#202046"><path d="M36.62-34.23L36.62-33.64Q36.62-33.45 36.43-33.45L36.43-33.45 35.52-33.45Q32.42-32.84 30.96-28.37L30.96-28.37Q30.57-27.2 30.15-26.1L30.15-26.1 20.56-0.2Q20.34 0.42 20.02 0.54 19.7 0.66 19.14 0.66L19.14 0.66 17.99 0.66Q17.41 0.66 17.24 0.12L17.24 0.12 4.37-31.05Q3.59-32.98 0.51-33.42L0.51-33.42Q0.34-33.45 0.23-33.45 0.12-33.45 0.12-33.64L0.12-33.64 0.12-34.23Q0.12-34.42 0.32-34.42L0.32-34.42 14.72-34.42Q14.92-34.42 14.92-34.23L14.92-34.23 14.92-33.64Q14.92-33.45 14.72-33.45L14.72-33.45 14.36-33.45Q13.75-33.35 12.94-33.25L12.94-33.25Q9.81-32.86 9.81-30.76L9.81-30.76Q9.81-30.1 10.16-29.35L10.16-29.35 19.41-6.84Q19.65-6.35 19.92-6.86L19.92-6.86 28.42-29.86Q28.59-30.35 28.59-31.02 28.59-31.69 28.03-32.31 27.47-32.93 26.89-33.03 26.32-33.13 25.99-33.18 25.66-33.23 25-33.34 24.34-33.45 24.12-33.45 23.9-33.45 23.9-33.64L23.9-33.64 23.9-34.23Q23.9-34.42 24.1-34.42L24.1-34.42 36.43-34.42Q36.62-34.42 36.62-34.23L36.62-34.23ZM46.26-2.44L46.26-2.44Q46.26-0.98 49.39-1.1L49.39-1.1Q50.51-1.15 50.51-0.78L50.51-0.78 50.51-0.2Q50.51 0 50.31 0L50.31 0 37.06 0Q36.86 0 36.86-0.2L36.86-0.2 36.86-0.78Q36.86-0.98 37.06-0.98L37.06-0.98 38.01-0.98Q41.23-1.37 44.41-5.44L44.41-5.44Q45.26-6.52 46.09-7.45L46.09-7.45 53.78-17.58 46.34-27.17Q45.63-28.08 44.97-29L44.97-29Q42.58-32.37 39.69-33.06L39.69-33.06Q38.72-33.45 37.06-33.45L37.06-33.45Q36.86-33.45 36.86-33.64L36.86-33.64 36.86-34.23Q36.86-34.42 37.06-34.42L37.06-34.42 53.15-34.42Q53.34-34.42 53.34-34.23L53.34-34.23 53.34-33.64Q53.34-33.45 52.15-33.45 50.95-33.45 50.19-33.25L50.19-33.25Q49-32.98 49-31.96L49-31.96Q49-31.54 49.41-30.91L49.41-30.91 56.2-21.9Q56.35-21.75 56.37-21.7 56.39-21.66 56.6-21.66 56.81-21.66 57.3-22.22L57.3-22.22 63.89-30.66Q64.35-31.23 64.35-31.86L64.35-31.86Q64.35-33.45 60.69-33.45L60.69-33.45Q60.5-33.45 60.5-33.64L60.5-33.64 60.5-34.25Q60.5-34.42 60.69-34.42L60.69-34.42 73.8-34.42Q74-34.42 74-34.23L74-34.23 74-33.64Q74-33.45 73.8-33.45L73.8-33.45Q69.89-33.45 66.04-28.96L66.04-28.96 58.47-19.07Q58.49-19.04 58.57-18.91 58.64-18.77 59.42-17.69 60.2-16.6 65.06-10.14 69.92-3.69 70.55-3.13L70.55-3.13Q72.24-1.56 73.7-1.29L73.7-1.29Q74-1.15 74.37-1.12 74.75-1.1 75.35-1.06 75.95-1.03 75.95-0.56L75.95-0.56Q75.95 0 75 0L75 0 61.55 0Q61.35 0 61.35-0.2L61.35-0.2 61.35-0.78Q61.35-1.03 62.08-1.03L62.08-1.03Q64.74-0.95 64.74-2.44L64.74-2.44Q64.74-2.81 64.45-3.3L64.45-3.3 55.86-14.65Q55.66-14.89 55.44-14.89 55.22-14.89 55.03-14.65L55.03-14.65 46.6-3.54Q46.26-3.08 46.26-2.44ZM107.37-2.1Q105.24-0.81 102.73-0.07 100.21 0.66 98.26 0.66L98.26 0.66Q94.26 0.66 90.62-0.63L90.62-0.63Q85.64-2.44 82.61-5.98L82.61-5.98Q78.75-10.5 78.75-17.43L78.75-17.43Q78.75-22.44 81.32-26.55 83.88-30.66 88.41-33.06 92.94-35.45 98.15-35.45 103.36-35.45 107.49-33.13 111.62-30.81 114.11-26.76 116.6-22.71 116.6-17.98 116.6-13.26 114.13-9 111.66-4.74 107.37-2.1L107.37-2.1ZM83.88-18.21Q83.88-14.16 85.68-10.17 87.47-6.18 90.82-3.66 94.16-1.15 98.55-1.15L98.55-1.15Q104.8-1.15 108.3-5.93L108.3-5.93Q111.45-10.25 111.45-16.97 111.45-23.68 107.59-28.54L107.59-28.54Q105.71-30.91 102.99-32.34 100.26-33.76 97.49-33.76 94.72-33.76 92.95-33.15 91.18-32.54 89.74-31.48 88.3-30.42 87.2-28.96 86.1-27.49 85.37-25.78L85.37-25.78Q83.88-22.27 83.88-18.21ZM133.64 0L120.94 0Q120.74 0 120.74-0.2L120.74-0.2 120.74-0.78Q120.74-0.98 120.99-0.98L120.99-0.98 121.55-0.98Q122.89-0.98 123.38-1.22L123.38-1.22Q125.19-2.1 125.19-6.05L125.19-6.05 125.19-31.42Q125.19-33.06 122.01-33.37L122.01-33.37Q121.31-33.45 121.03-33.45 120.74-33.45 120.74-33.64L120.74-33.64 120.74-34.23Q120.74-34.42 120.94-34.42L120.94-34.42 129.88-34.42 153.04-8.81Q153.17-8.69 153.22-8.63 153.26-8.57 153.37-8.57 153.48-8.57 153.48-8.79L153.48-8.79 153.48-25.61Q153.48-30.47 152.68-31.96 151.87-33.45 149.43-33.45L149.43-33.45 148.19-33.45Q147.99-33.45 147.99-33.64L147.99-33.64 147.99-34.23Q147.99-34.42 148.19-34.42L148.19-34.42 160.88-34.42Q161.08-34.42 161.08-34.23L161.08-34.23 161.08-33.64Q161.08-33.45 160.36-33.45 159.64-33.45 157.99-32.62 156.34-31.79 156.34-30.57L156.34-30.57 156.34-0.71Q156.34-0.17 156.19 0.06 156.05 0.29 155.5 0.29 154.95 0.29 154.68 0.07 154.41-0.15 154.05-0.56L154.05-0.56 128.87-28.47Q128.63-28.71 128.43-28.71L128.43-28.71Q128.31-28.71 128.31-28.47L128.31-28.47 128.31-4.1Q128.31-1.88 131.83-1.17L131.83-1.17Q132.81-0.98 133.32-0.98 133.83-0.98 133.83-0.78L133.83-0.78 133.83-0.2Q133.83 0 133.64 0L133.64 0ZM185.09-0.2L185.09-0.78Q185.09-0.98 185.31-0.98L185.31-0.98 186-0.98Q188.39-0.98 189.84-2 191.3-3.03 191.3-4.39L191.3-4.39 191.3-31.42Q191.3-31.93 191.09-31.99 190.88-32.06 190.59-32.1L190.59-32.1 181.21-32.1Q178.94-31.62 178.23-28.61L178.23-28.61Q177.84-27 177.77-26.55 177.7-26.1 177.5-26.1L177.5-26.1 177.06-26.1Q176.92-26.1 176.92-26.2L176.92-26.2 176.92-27 177.82-34.62Q177.97-35.38 178.31-35.38 178.65-35.38 179.04-34.9 179.43-34.42 180.53-34.42L180.53-34.42 206.85-34.42Q207.9-34.42 208.12-34.67 208.34-34.91 208.53-35.14 208.73-35.38 209.03-35.38 209.34-35.38 209.42-35.13 209.51-34.89 209.56-34.62L209.56-34.62 210.46-27 210.46-26.2Q210.46-26.1 210.31-26.1L210.31-26.1 209.88-26.1Q209.68-26.1 209.61-26.46L209.61-26.46Q209.22-28.91 208.48-30.33 207.75-31.76 206.16-32.1L206.16-32.1 196.76-32.1Q196.47-32.06 196.26-31.99 196.06-31.93 196.06-31.42L196.06-31.42 196.06-4.39Q196.06-3.03 197.51-2 198.96-0.98 201.35-0.98L201.35-0.98 202.06-0.98Q202.26-0.98 202.26-0.78L202.26-0.78 202.26-0.2Q202.26 0 202.06 0L202.06 0 185.29 0Q185.09 0 185.09-0.2L185.09-0.2ZM231.82-12.87L217.66-12.87Q217.25-12.87 217.25-11.08L217.25-11.08Q217.25-7.3 219.49-4.74 221.74-2.17 225.07-2.17 228.4-2.17 231.48-5.05L231.48-5.05Q231.53-5.1 231.6-5.1L231.6-5.1 231.72-5.1Q231.87-5.1 232-4.87 232.14-4.64 232.26-4.57L232.26-4.57Q229.43-1.12 225.6 0.2L225.6 0.2Q224.28 0.66 222.62 0.66 220.96 0.66 219.25-0.26 217.54-1.17 216.32-2.66L216.32-2.66Q213.73-5.76 213.73-10.39 213.73-15.01 216.55-18.82 219.37-22.63 224.3-22.63L224.3-22.63Q227.84-22.63 230.09-19.47 232.33-16.31 232.33-13.92L232.33-13.92Q232.33-12.87 231.82-12.87L231.82-12.87ZM217.93-15.5L217.93-15.21Q217.93-14.75 218.37-14.75L218.37-14.75 227.57-14.75Q228.21-14.75 228.21-15.5L228.21-15.5Q228.21-17.26 226.63-19.1 225.06-20.95 223.18-20.95L223.18-20.95Q221.35-20.95 219.85-19.29 218.34-17.63 217.93-15.5L217.93-15.5ZM255.6-19.7L255.6-19.7Q255.6-17.99 253.62-17.99L253.62-17.99Q252.62-17.99 251.92-18.57 251.23-19.14 250.85-19.54 250.47-19.95 250.06-20.29L250.06-20.29Q248.3-21.73 245.77-20.61 243.24-19.48 241.88-15.82L241.88-15.82Q241.12-13.79 241.12-11.79L241.12-11.79Q241.12-7.5 243.07-4.77 245.03-2.05 249.05-2.05L249.05-2.05Q252.06-2.05 254.45-4.74L254.45-4.74Q255.18-5.54 255.33-5.54 255.48-5.54 255.65-5.4 255.82-5.25 255.82-4.97 255.82-4.69 255.67-4.54L255.67-4.54Q251.94 0.66 246.27 0.66L246.27 0.66Q242.17 0.66 239.55-2.39 236.92-5.44 236.92-9.38L236.92-9.38Q236.95-16.65 240.44-19.85L240.44-19.85Q243.51-22.66 249.2-22.66L249.2-22.66Q252.72-22.66 253.86-21.95 255.01-21.24 255.48-20.17L255.48-20.17Q255.6-19.92 255.6-19.7ZM265.85-39.58L265.85-18.9Q265.85-18.31 266.02-18.31 266.19-18.31 266.26-18.4 266.34-18.48 267.29-19.53L267.29-19.53Q270.05-22.61 272.88-22.61L272.88-22.61Q276.59-22.61 278.32-20.95L278.32-20.95Q280.45-18.85 280.45-13.89L280.45-13.89 280.45-3.71Q280.45-1.32 283.09-0.93L283.09-0.93Q284.23-0.78 284.23-0.42 284.23-0.05 283.99 0L283.99 0 273.1 0Q272.86-0.05 272.86-0.34L272.86-0.34Q272.86-0.78 274-0.93L274-0.93Q276.64-1.32 276.64-3.71L276.64-3.71 276.64-13.65Q276.64-17.24 276.13-18.31L276.13-18.31Q275.15-20.46 272.05-20.46L272.05-20.46Q270.15-20.46 268-18.84 265.85-17.21 265.85-15.26L265.85-15.26 265.85-3.71Q265.85-1.32 268.49-0.93L268.49-0.93Q269.63-0.78 269.63-0.42 269.63-0.05 269.39 0L269.39 0 258.5 0Q258.26-0.05 258.26-0.34L258.26-0.34Q258.26-0.78 259.4-0.93L259.4-0.93Q262.04-1.32 262.04-3.71L262.04-3.71 262.04-34.16Q262.04-35.18 260.92-35.57L260.92-35.57Q260.43-35.74 259.87-35.85 259.31-35.96 258.98-36.06 258.65-36.16 258.56-36.24 258.48-36.33 258.48-36.61 258.48-36.89 258.84-37.08L258.84-37.08 265.07-40.01Q265.36-40.16 265.43-40.16L265.43-40.16Q265.85-40.16 265.85-39.58L265.85-39.58Z" opacity="1" transform="matrix(1,0,0,1,0,0)" fill="#000000" class="undefined-text-0" data-fill-palette-color="primary" id="text-0"></path></svg></g></svg></g><g transform="matrix(1,0,0,1,163.310208,70.23790405202269)"><svg viewBox="0 0 232.209792 13.873312293164197" height="13.873312293164197" width="232.209792"><g transform="matrix(1,0,0,1,0,0)"><svg width="232.209792" viewBox="4.400000095367432 -37.599998474121094 638.469970703125 38.14999771118164" height="13.873312293164197" data-palette-color="#3886ce"><path d="M4.4-34.25L7.25-34.25 7.25 0 4.4 0 4.4-34.25ZM25.65-26.7Q28.5-26.7 30.07-24.68 31.65-22.65 31.65-19.15L31.65-19.15 31.65 0 28.85 0 28.85-18.8Q28.85-24.4 25.1-24.4L25.1-24.4Q21.55-24.4 18.65-18.75L18.65-18.75 18.65 0 15.85 0 15.85-26.15 18.25-26.15 18.55-21.65Q20-24.1 21.65-25.4 23.3-26.7 25.65-26.7L25.65-26.7ZM49.65-26.7Q52.5-26.7 54.07-24.68 55.65-22.65 55.65-19.15L55.65-19.15 55.65 0 52.84 0 52.84-18.8Q52.84-24.4 49.1-24.4L49.1-24.4Q45.55-24.4 42.65-18.75L42.65-18.75 42.65 0 39.85 0 39.85-26.15 42.25-26.15 42.55-21.65Q44-24.1 45.65-25.4 47.3-26.7 49.65-26.7L49.65-26.7ZM71.44-26.7Q75.89-26.7 78.29-23.28 80.69-19.85 80.69-13.15L80.69-13.15Q80.69-6.6 78.22-3.03 75.74 0.55 71.39 0.55L71.39 0.55Q67.04 0.55 64.62-3 62.19-6.55 62.19-13.05L62.19-13.05Q62.19-19.65 64.64-23.18 67.09-26.7 71.44-26.7L71.44-26.7ZM71.44-24.3Q65.14-24.3 65.14-13.05L65.14-13.05Q65.14-1.8 71.39-1.8L71.39-1.8Q77.74-1.8 77.74-13.15L77.74-13.15Q77.74-18.9 76.14-21.6 74.54-24.3 71.44-24.3L71.44-24.3ZM99.54-26.15L102.34-26.15 95.04 0 91.64 0 84.04-26.15 86.94-26.15 93.34-2.45 99.54-26.15ZM121.09-5Q121.09-3.4 121.51-2.63 121.94-1.85 122.84-1.4L122.84-1.4 122.24 0.55Q120.64 0.15 119.79-0.8 118.94-1.75 118.69-3.55L118.69-3.55Q116.34 0.55 112.14 0.55L112.14 0.55Q109.04 0.55 107.19-1.6 105.34-3.75 105.34-7.25L105.34-7.25Q105.34-11.35 107.81-13.53 110.29-15.7 114.89-15.7L114.89-15.7 118.34-15.7 118.34-18.7Q118.34-21.55 117.21-22.95 116.09-24.35 113.69-24.35L113.69-24.35Q110.94-24.35 107.69-22.95L107.69-22.95 106.89-24.95Q110.64-26.7 113.94-26.7L113.94-26.7Q117.54-26.7 119.31-24.68 121.09-22.65 121.09-18.9L121.09-18.9 121.09-5ZM112.59-1.7Q116.39-1.7 118.34-6.55L118.34-6.55 118.34-13.65 115.14-13.65Q111.64-13.65 109.96-12.1 108.29-10.55 108.29-7.35L108.29-7.35Q108.29-4.6 109.41-3.15 110.54-1.7 112.59-1.7L112.59-1.7ZM138.54-2.9L139.69-1.1Q137.59 0.55 135.04 0.55L135.04 0.55Q132.49 0.55 131.01-1.05 129.54-2.65 129.54-5.35L129.54-5.35 129.54-23.85 126.04-23.85 126.04-26.15 129.54-26.15 129.54-32.4 132.34-32.75 132.34-26.15 137.84-26.15 137.49-23.85 132.34-23.85 132.34-5.35Q132.34-3.7 133.09-2.78 133.84-1.85 135.34-1.85L135.34-1.85Q136.94-1.85 138.54-2.9L138.54-2.9ZM143.78-26.15L146.58-26.15 146.58 0 143.78 0 143.78-26.15ZM145.13-37.6Q146.03-37.6 146.58-37 147.13-36.4 147.13-35.5L147.13-35.5Q147.13-34.7 146.58-34.1 146.03-33.5 145.13-33.5L145.13-33.5Q144.28-33.5 143.71-34.1 143.13-34.7 143.13-35.5L143.13-35.5Q143.13-36.4 143.68-37 144.23-37.6 145.13-37.6L145.13-37.6ZM167.08-26.15L169.88-26.15 162.58 0 159.18 0 151.58-26.15 154.48-26.15 160.88-2.45 167.08-26.15ZM190.53-14.05Q190.53-12.95 190.43-11.95L190.43-11.95 176.13-11.95Q176.33-6.55 178-4.2 179.68-1.85 182.58-1.85L182.58-1.85Q184.28-1.85 185.58-2.43 186.88-3 188.28-4.25L188.28-4.25 189.68-2.6Q188.13-1.05 186.4-0.25 184.68 0.55 182.53 0.55L182.53 0.55Q178.18 0.55 175.7-2.88 173.23-6.3 173.23-12.85L173.23-12.85Q173.23-19.5 175.6-23.1 177.98-26.7 182.13-26.7L182.13-26.7Q186.23-26.7 188.38-23.48 190.53-20.25 190.53-14.05L190.53-14.05ZM187.78-14.15L187.78-14.95Q187.78-19.65 186.38-22 184.98-24.35 182.13-24.35L182.13-24.35Q176.48-24.35 176.13-14.15L176.13-14.15 187.78-14.15ZM215.17-34.8Q217.77-34.8 219.67-33.85 221.57-32.9 223.32-31L223.32-31 221.67-29.35Q220.12-30.9 218.6-31.6 217.07-32.3 215.17-32.3L215.17-32.3Q212.67-32.3 211.1-30.68 209.52-29.05 209.52-26.5L209.52-26.5Q209.52-23.95 210.95-22.38 212.37-20.8 216.02-19.45L216.02-19.45Q220.22-17.85 222.2-15.6 224.17-13.35 224.17-9.35L224.17-9.35Q224.17-6.6 222.97-4.35 221.77-2.1 219.6-0.78 217.42 0.55 214.62 0.55L214.62 0.55Q211.82 0.55 209.6-0.55 207.37-1.65 205.47-3.75L205.47-3.75 207.12-5.4Q208.87-3.7 210.6-2.83 212.32-1.95 214.57-1.95L214.57-1.95Q217.57-1.95 219.37-3.95 221.17-5.95 221.17-9.25L221.17-9.25Q221.17-12.2 219.77-13.9 218.37-15.6 214.67-17.05L214.67-17.05Q210.37-18.7 208.5-20.88 206.62-23.05 206.62-26.4L206.62-26.4Q206.62-28.65 207.72-30.58 208.82-32.5 210.77-33.65 212.72-34.8 215.17-34.8L215.17-34.8ZM238.07-26.7Q242.52-26.7 244.92-23.28 247.32-19.85 247.32-13.15L247.32-13.15Q247.32-6.6 244.85-3.03 242.37 0.55 238.02 0.55L238.02 0.55Q233.67 0.55 231.25-3 228.82-6.55 228.82-13.05L228.82-13.05Q228.82-19.65 231.27-23.18 233.72-26.7 238.07-26.7L238.07-26.7ZM238.07-24.3Q231.77-24.3 231.77-13.05L231.77-13.05Q231.77-1.8 238.02-1.8L238.02-1.8Q244.37-1.8 244.37-13.15L244.37-13.15Q244.37-18.9 242.77-21.6 241.17-24.3 238.07-24.3L238.07-24.3ZM257.82 0.55Q256.02 0.55 254.92-0.63 253.82-1.8 253.82-3.85L253.82-3.85 253.82-36.8 256.62-37.15 256.62-3.95Q256.62-1.85 258.32-1.85L258.32-1.85Q259.02-1.85 259.72-2.15L259.72-2.15 260.42-0.15Q259.27 0.55 257.82 0.55L257.82 0.55ZM281.22-26.15L281.22 0 278.82 0 278.62-4.35Q276.07 0.55 271.82 0.55L271.82 0.55Q268.92 0.55 267.24-1.4 265.57-3.35 265.57-6.6L265.57-6.6 265.57-26.15 268.37-26.15 268.37-6.85Q268.37-4.35 269.39-3.05 270.42-1.75 272.27-1.75L272.27-1.75Q274.22-1.75 275.72-3.18 277.22-4.6 278.42-7.1L278.42-7.1 278.42-26.15 281.22-26.15ZM298.66-2.9L299.81-1.1Q297.71 0.55 295.16 0.55L295.16 0.55Q292.61 0.55 291.14-1.05 289.66-2.65 289.66-5.35L289.66-5.35 289.66-23.85 286.16-23.85 286.16-26.15 289.66-26.15 289.66-32.4 292.46-32.75 292.46-26.15 297.96-26.15 297.61-23.85 292.46-23.85 292.46-5.35Q292.46-3.7 293.21-2.78 293.96-1.85 295.46-1.85L295.46-1.85Q297.06-1.85 298.66-2.9L298.66-2.9ZM303.91-26.15L306.71-26.15 306.71 0 303.91 0 303.91-26.15ZM305.26-37.6Q306.16-37.6 306.71-37 307.26-36.4 307.26-35.5L307.26-35.5Q307.26-34.7 306.71-34.1 306.16-33.5 305.26-33.5L305.26-33.5Q304.41-33.5 303.84-34.1 303.26-34.7 303.26-35.5L303.26-35.5Q303.26-36.4 303.81-37 304.36-37.6 305.26-37.6L305.26-37.6ZM322.71-26.7Q327.16-26.7 329.56-23.28 331.96-19.85 331.96-13.15L331.96-13.15Q331.96-6.6 329.48-3.03 327.01 0.55 322.66 0.55L322.66 0.55Q318.31 0.55 315.88-3 313.46-6.55 313.46-13.05L313.46-13.05Q313.46-19.65 315.91-23.18 318.36-26.7 322.71-26.7L322.71-26.7ZM322.71-24.3Q316.41-24.3 316.41-13.05L316.41-13.05Q316.41-1.8 322.66-1.8L322.66-1.8Q329.01-1.8 329.01-13.15L329.01-13.15Q329.01-18.9 327.41-21.6 325.81-24.3 322.71-24.3L322.71-24.3ZM348.51-26.7Q351.36-26.7 352.93-24.68 354.51-22.65 354.51-19.15L354.51-19.15 354.51 0 351.71 0 351.71-18.8Q351.71-24.4 347.96-24.4L347.96-24.4Q344.41-24.4 341.51-18.75L341.51-18.75 341.51 0 338.71 0 338.71-26.15 341.11-26.15 341.41-21.65Q342.86-24.1 344.51-25.4 346.16-26.7 348.51-26.7L348.51-26.7ZM368.25-26.7Q372.15-26.7 375.2-23.8L375.2-23.8 373.9-22.1Q372.45-23.3 371.18-23.85 369.9-24.4 368.3-24.4L368.3-24.4Q366.25-24.4 364.98-23.2 363.7-22 363.7-19.9L363.7-19.9Q363.7-18.1 364.83-17 365.95-15.9 368.95-14.8L368.95-14.8Q372.6-13.45 374.2-11.73 375.8-10 375.8-7L375.8-7Q375.8-3.55 373.53-1.5 371.25 0.55 367.85 0.55L367.85 0.55Q363.35 0.55 360-2.8L360-2.8 361.55-4.4Q363-3.1 364.48-2.43 365.95-1.75 367.8-1.75L367.8-1.75Q370.1-1.75 371.53-3.1 372.95-4.45 372.95-6.9L372.95-6.9Q372.95-8.45 372.45-9.43 371.95-10.4 370.75-11.18 369.55-11.95 367.3-12.8L367.3-12.8Q363.85-14.05 362.38-15.7 360.9-17.35 360.9-19.85L360.9-19.85Q360.9-22.8 363-24.75 365.1-26.7 368.25-26.7L368.25-26.7ZM407.3-34.25L410.25-34.25 401.35-13.4 401.35 0 398.45 0 398.45-13.35 389.45-34.25 392.55-34.25 399.95-16 407.3-34.25ZM422.5-26.7Q426.95-26.7 429.35-23.28 431.75-19.85 431.75-13.15L431.75-13.15Q431.75-6.6 429.27-3.03 426.8 0.55 422.45 0.55L422.45 0.55Q418.1 0.55 415.67-3 413.25-6.55 413.25-13.05L413.25-13.05Q413.25-19.65 415.7-23.18 418.15-26.7 422.5-26.7L422.5-26.7ZM422.5-24.3Q416.2-24.3 416.2-13.05L416.2-13.05Q416.2-1.8 422.45-1.8L422.45-1.8Q428.8-1.8 428.8-13.15L428.8-13.15Q428.8-18.9 427.2-21.6 425.6-24.3 422.5-24.3L422.5-24.3ZM453.89-26.15L453.89 0 451.49 0 451.29-4.35Q448.74 0.55 444.49 0.55L444.49 0.55Q441.59 0.55 439.92-1.4 438.24-3.35 438.24-6.6L438.24-6.6 438.24-26.15 441.04-26.15 441.04-6.85Q441.04-4.35 442.07-3.05 443.09-1.75 444.94-1.75L444.94-1.75Q446.89-1.75 448.39-3.18 449.89-4.6 451.09-7.1L451.09-7.1 451.09-26.15 453.89-26.15ZM483.54-34.8Q485.79-34.8 487.51-34.02 489.24-33.25 490.94-31.65L490.94-31.65 489.39-29.85Q487.94-31.15 486.61-31.73 485.29-32.3 483.64-32.3L483.64-32.3Q479.74-32.3 477.39-28.75 475.04-25.2 475.04-17.15L475.04-17.15Q475.04-9.3 477.36-5.65 479.69-2 483.64-2L483.64-2Q485.54-2 486.84-2.7 488.14-3.4 489.59-4.7L489.59-4.7 491.24-2.9Q487.99 0.55 483.59 0.55L483.59 0.55Q478.34 0.55 475.16-3.9 471.99-8.35 471.99-17.15L471.99-17.15Q471.99-23.1 473.51-27.05 475.04-31 477.64-32.9 480.24-34.8 483.54-34.8L483.54-34.8ZM510.04-5Q510.04-3.4 510.46-2.63 510.89-1.85 511.79-1.4L511.79-1.4 511.19 0.55Q509.59 0.15 508.74-0.8 507.89-1.75 507.64-3.55L507.64-3.55Q505.29 0.55 501.09 0.55L501.09 0.55Q497.99 0.55 496.14-1.6 494.29-3.75 494.29-7.25L494.29-7.25Q494.29-11.35 496.76-13.53 499.24-15.7 503.84-15.7L503.84-15.7 507.29-15.7 507.29-18.7Q507.29-21.55 506.16-22.95 505.04-24.35 502.64-24.35L502.64-24.35Q499.89-24.35 496.64-22.95L496.64-22.95 495.84-24.95Q499.59-26.7 502.89-26.7L502.89-26.7Q506.49-26.7 508.26-24.68 510.04-22.65 510.04-18.9L510.04-18.9 510.04-5ZM501.54-1.7Q505.34-1.7 507.29-6.55L507.29-6.55 507.29-13.65 504.09-13.65Q500.59-13.65 498.91-12.1 497.24-10.55 497.24-7.35L497.24-7.35Q497.24-4.6 498.36-3.15 499.49-1.7 501.54-1.7L501.54-1.7ZM528.23-26.7Q531.08-26.7 532.66-24.68 534.23-22.65 534.23-19.15L534.23-19.15 534.23 0 531.43 0 531.43-18.8Q531.43-24.4 527.68-24.4L527.68-24.4Q524.13-24.4 521.23-18.75L521.23-18.75 521.23 0 518.43 0 518.43-26.15 520.83-26.15 521.13-21.65Q522.58-24.1 524.23-25.4 525.88-26.7 528.23-26.7L528.23-26.7ZM550.08-34.25L569.58-34.25 569.23-31.75 561.18-31.75 561.18 0 558.28 0 558.28-31.75 550.08-31.75 550.08-34.25ZM582.92-26.7Q583.82-26.7 584.92-26.4L584.92-26.4 584.42-23.8Q583.52-24.05 582.63-24.05L582.63-24.05Q580.47-24.05 579.13-22.18 577.77-20.3 576.92-16.5L576.92-16.5 576.92 0 574.13 0 574.13-26.15 576.52-26.15 576.77-20.9Q577.72-23.85 579.22-25.28 580.72-26.7 582.92-26.7L582.92-26.7ZM605.02-26.15L605.02 0 602.62 0 602.42-4.35Q599.87 0.55 595.62 0.55L595.62 0.55Q592.72 0.55 591.05-1.4 589.37-3.35 589.37-6.6L589.37-6.6 589.37-26.15 592.17-26.15 592.17-6.85Q592.17-4.35 593.2-3.05 594.22-1.75 596.07-1.75L596.07-1.75Q598.02-1.75 599.52-3.18 601.02-4.6 602.22-7.1L602.22-7.1 602.22-26.15 605.02-26.15ZM618.97-26.7Q622.87-26.7 625.92-23.8L625.92-23.8 624.62-22.1Q623.17-23.3 621.89-23.85 620.62-24.4 619.02-24.4L619.02-24.4Q616.97-24.4 615.69-23.2 614.42-22 614.42-19.9L614.42-19.9Q614.42-18.1 615.54-17 616.67-15.9 619.67-14.8L619.67-14.8Q623.32-13.45 624.92-11.73 626.52-10 626.52-7L626.52-7Q626.52-3.55 624.24-1.5 621.97 0.55 618.57 0.55L618.57 0.55Q614.07 0.55 610.72-2.8L610.72-2.8 612.27-4.4Q613.72-3.1 615.19-2.43 616.67-1.75 618.52-1.75L618.52-1.75Q620.82-1.75 622.24-3.1 623.67-4.45 623.67-6.9L623.67-6.9Q623.67-8.45 623.17-9.43 622.67-10.4 621.47-11.18 620.27-11.95 618.02-12.8L618.02-12.8Q614.57-14.05 613.09-15.7 611.62-17.35 611.62-19.85L611.62-19.85Q611.62-22.8 613.72-24.75 615.82-26.7 618.97-26.7L618.97-26.7ZM641.72-2.9L642.87-1.1Q640.77 0.55 638.22 0.55L638.22 0.55Q635.67 0.55 634.19-1.05 632.72-2.65 632.72-5.35L632.72-5.35 632.72-23.85 629.22-23.85 629.22-26.15 632.72-26.15 632.72-32.4 635.52-32.75 635.52-26.15 641.02-26.15 640.67-23.85 635.52-23.85 635.52-5.35Q635.52-3.7 636.27-2.78 637.02-1.85 638.52-1.85L638.52-1.85Q640.12-1.85 641.72-2.9L641.72-2.9Z" opacity="1" transform="matrix(1,0,0,1,0,0)" fill="#000000" class="undefined-text-1" data-fill-palette-color="secondary" id="text-1"></path></svg></g></svg></g></svg></g></svg></g><g><svg viewBox="0 0 82.37768490218475 87.18127574178621" height="87.18127574178621" width="82.37768490218475"><g><svg xmlns="http://www.w3.org/2000/svg" xmlns:xlink="http://www.w3.org/1999/xlink" version="1.1" x="0" y="0" viewBox="215.15074157714844 212.76849365234375 81.69755554199219 86.46148681640625" enable-background="new 206 206 100 100" xml:space="preserve" height="87.18127574178621" width="82.37768490218475" class="icon-icon-0" data-fill-palette-color="accent" id="icon-0"><g fill="#3d77fe" data-fill-palette-color="accent"><path d="M267.648 296.66v0.296c0 1.255-1.021 2.274-2.274 2.274h-12.66c-1.255 0-2.275-1.02-2.275-2.274v-0.296c0-1.251 1.014-2.27 2.263-2.274h12.684C266.634 294.39 267.648 295.409 267.648 296.66z" fill="#000000" data-fill-palette-color="accent"></path><path d="M275.291 290.427l-0.002 0.301c0 1.253-1.02 2.274-2.274 2.274h-27.941c-1.255 0-2.277-1.021-2.277-2.274v-0.299c0-1.253 1.022-2.274 2.277-2.274h27.941C274.27 288.154 275.291 289.176 275.291 290.427z" fill="#000000" data-fill-palette-color="accent"></path><path d="M275.291 284.195l-0.002 0.299c0 1.255-1.02 2.276-2.274 2.276h-27.941c-1.255 0-2.277-1.021-2.277-2.276v-0.296c0-1.256 1.022-2.274 2.277-2.274h27.941C274.27 281.924 275.291 282.942 275.291 284.195z" fill="#000000" data-fill-palette-color="accent"></path><path d="M280.88 244.832c-1.755 2.809-6.573 3.358-9.217 3.439 0.012-0.596-0.052-1.22-0.191-1.872-0.109-0.501-0.268-0.964-0.473-1.391 3.594-1.858 4.883-4.532 4.938-4.649 0.163-0.347 0.014-0.755-0.329-0.918-0.344-0.164-0.757-0.016-0.922 0.329-0.012 0.023-1.197 2.435-4.447 4.073-0.404-0.468-0.892-0.869-1.463-1.198-2.782-1.594-6.927-1.099-9.479-0.557-1.253-0.967-2.636-2.471-2.672-4.416-0.013-0.533 0.083-1.091 0.282-1.66 0.127-0.359-0.063-0.755-0.423-0.881-0.362-0.126-0.757 0.063-0.883 0.423-0.117 0.336-0.206 0.672-0.265 1.004-1.296-0.796-3.557-2.453-3.834-4.445-0.051-0.379-0.402-0.642-0.78-0.588-0.377 0.051-0.642 0.401-0.589 0.778 0.417 3.008 3.964 5.18 5.134 5.818 0.146 1.565 0.957 3.053 2.372 4.374-0.348 0.097-0.566 0.166-0.615 0.182-0.012 0.004-0.023 0.008-0.033 0.014-0.058 0.022-3.763 1.431-7.233 1.464-0.067-0.009-0.134-0.009-0.201 0-1.741-0.009-3.405-0.381-4.492-1.468-0.271-0.271-0.707-0.271-0.978 0-0.271 0.271-0.271 0.707 0 0.978 1.304 1.304 3.186 1.792 5.126 1.856 0.471 1.075 1.12 3.239 0.285 4.616-0.621 1.024-2.006 1.543-4.119 1.543-0.383 0-0.691 0.311-0.691 0.692s0.309 0.691 0.691 0.691c2.629 0 4.413-0.743 5.301-2.209 0.203-0.333 0.346-0.687 0.44-1.049 1.269-0.372 5.59-1.448 8.666 0.079 0.343 0.17 0.759 0.03 0.928-0.312 0.17-0.342 0.03-0.757-0.312-0.927-3.172-1.575-7.271-0.804-9.12-0.322-0.028-1.079-0.326-2.11-0.593-2.828 3.318-0.215 6.433-1.373 6.78-1.508 0.366-0.114 7.047-2.189 10.62-0.14 1.087 0.623 1.751 1.554 2.03 2.846 0.165 0.765 0.206 1.467 0.124 2.115-0.014 0.051-0.024 0.106-0.024 0.164-0.14 0.856-0.506 1.61-1.103 2.276-4.114 4.603-17.38 3.304-17.515 3.291-0.381-0.038-0.719 0.237-0.759 0.618-0.037 0.379 0.239 0.719 0.619 0.757 0.12 0.014 0.82 0.081 1.887 0.134-1.182 0.871-2.844 1.717-4.846 1.725h-0.028c-2.46 0-4.968-1.263-7.456-3.749-3.699-3.701-4.679-7.332-2.832-10.499 1.065-1.82 2.678-2.854 2.709-2.874 0.324-0.201 0.423-0.628 0.219-0.953-0.201-0.324-0.628-0.422-0.952-0.221-0.065 0.041-1.394 0.885-2.559 2.434-1.053-1.802-1.336-3.387-0.834-4.719 0.814-2.168 3.545-3.395 5.61-4.031-0.005 0.372 0.034 0.741 0.129 1.108 0.984 3.85 7.254 5.727 7.521 5.804 0.063 0.02 0.13 0.027 0.193 0.027 0.298 0 0.575-0.196 0.664-0.496 0.107-0.367-0.103-0.751-0.468-0.859-0.059-0.016-5.784-1.733-6.571-4.82-0.322-1.261 0.267-2.652 1.751-4.134 1.863-1.863 3.786-2.743 5.715-2.619 3.134 0.204 5.336 3.008 5.375 3.059 0.23 0.303 0.666 0.362 0.969 0.129 0.304-0.231 0.361-0.666 0.129-0.969-0.055-0.073-0.777-1.005-2.005-1.904 7.001-4.499 12.466-0.896 16.017 3.389-1.883 0.729-3.412 2.3-4.326 3.729-4.425-1.167-4.891-3.438-4.913-3.559-0.057-0.374-0.402-0.632-0.779-0.579-0.378 0.054-0.644 0.403-0.59 0.782 0.021 0.135 0.509 3.141 5.619 4.605-0.237 0.577-0.397 1.219-0.245 1.729 0.107 0.367 0.492 0.579 0.857 0.471 0.368-0.108 0.577-0.492 0.469-0.858-0.038-0.16 0.104-0.856 0.769-1.881 0.901-1.394 2.543-3.016 4.45-3.391 2.612-0.507 5.093 1.484 7.174 5.767C281.751 240.715 281.953 243.117 280.88 244.832z" fill="#000000" data-fill-palette-color="accent"></path><path d="M272.73 249.605l-9.232 30.936h-8.909l-6.385-21.395c0.089 0.004 0.18 0.009 0.271 0.009h0.032c3.217-0.012 5.638-1.823 6.907-3.048 0.152 0.002 0.306 0.002 0.462 0.002 4.523 0 11.287-0.605 14.271-3.938 0.665-0.743 1.111-1.583 1.34-2.509C271.876 249.652 272.293 249.635 272.73 249.605z" fill="#000000" data-fill-palette-color="accent"></path><path d="M288.641 243.823c0 5.926-1.746 11.642-5.046 16.532-0.496 0.641-8.04 10.524-9.756 20.281-0.265-0.062-0.54-0.096-0.824-0.096h-8.073l9.274-31.078c2.944-0.375 6.265-1.381 7.837-3.896 1.34-2.148 1.165-5-0.526-8.479-2.83-5.826-5.977-6.854-8.253-6.588-3.34-4.227-9.986-9.895-18.782-3.814-0.884-0.458-1.918-0.814-3.075-0.891-2.348-0.156-4.634 0.857-6.797 3.02-0.948 0.946-1.594 1.891-1.942 2.822-2.363 0.641-6.084 2.093-7.205 5.071-0.714 1.899-0.271 4.085 1.308 6.504-1.375 2.65-1.788 6.743 3.259 11.792 2.184 2.183 4.418 3.511 6.667 3.97l6.437 21.568h-8.07c-0.285 0-0.562 0.034-0.828 0.096-1.713-9.756-9.259-19.639-9.754-20.281-3.302-4.891-5.047-10.607-5.047-16.532 0-16.321 13.278-29.599 29.599-29.599C275.364 214.224 288.641 227.502 288.641 243.823z" fill="#000000" data-fill-palette-color="accent"></path><path d="M230.269 222.229c0.176 0 0.354-0.067 0.489-0.203 0.27-0.271 0.27-0.708 0-0.978l-2.505-2.505c-0.271-0.27-0.708-0.27-0.978 0-0.271 0.27-0.271 0.708 0 0.978l2.504 2.505C229.915 222.162 230.092 222.229 230.269 222.229z" fill="#000000" data-fill-palette-color="accent"></path><path d="M222.681 212.971c-0.27-0.27-0.708-0.27-0.978 0s-0.27 0.708 0 0.978l2.505 2.505c0.135 0.135 0.312 0.203 0.489 0.203s0.354-0.068 0.489-0.203c0.271-0.271 0.271-0.708 0-0.979L222.681 212.971z" fill="#000000" data-fill-palette-color="accent"></path><path d="M227.764 216.657c0.177 0 0.354-0.068 0.489-0.203l2.505-2.505c0.27-0.27 0.27-0.708 0-0.978s-0.708-0.27-0.979 0l-2.504 2.505c-0.271 0.271-0.271 0.708 0 0.978C227.41 216.59 227.587 216.657 227.764 216.657z" fill="#000000" data-fill-palette-color="accent"></path><path d="M224.208 218.543l-2.505 2.505c-0.27 0.271-0.27 0.708 0 0.978 0.135 0.136 0.312 0.203 0.489 0.203s0.354-0.067 0.489-0.203l2.505-2.505c0.271-0.27 0.271-0.708 0-0.978C224.917 218.274 224.479 218.273 224.208 218.543z" fill="#000000" data-fill-palette-color="accent"></path><path d="M221.903 253.416c-0.27-0.27-0.708-0.27-0.979 0-0.27 0.27-0.27 0.708 0 0.979l2.505 2.505c0.136 0.135 0.312 0.202 0.49 0.202 0.176 0 0.354-0.067 0.489-0.202 0.27-0.271 0.27-0.708 0-0.979L221.903 253.416z" fill="#000000" data-fill-palette-color="accent"></path><path d="M217.859 251.327c0.135 0.136 0.312 0.203 0.489 0.203 0.177 0 0.354-0.067 0.489-0.203 0.27-0.27 0.27-0.708 0-0.978l-2.505-2.505c-0.27-0.27-0.708-0.27-0.978 0-0.271 0.27-0.271 0.708 0 0.978L217.859 251.327z" fill="#000000" data-fill-palette-color="accent"></path><path d="M223.43 247.844l-2.505 2.505c-0.27 0.271-0.27 0.708 0 0.979 0.135 0.135 0.313 0.203 0.489 0.203 0.177 0 0.354-0.067 0.489-0.203l2.505-2.506c0.27-0.27 0.27-0.708 0-0.978C224.138 247.574 223.7 247.574 223.43 247.844z" fill="#000000" data-fill-palette-color="accent"></path><path d="M217.859 253.416l-2.505 2.505c-0.271 0.27-0.271 0.708 0 0.978 0.135 0.135 0.312 0.202 0.489 0.202 0.177 0 0.354-0.067 0.489-0.202l2.505-2.505c0.27-0.27 0.27-0.708 0-0.979C218.567 253.146 218.129 253.146 217.859 253.416z" fill="#000000" data-fill-palette-color="accent"></path><path d="M293.86 222.098c0.271-0.271 0.271-0.708 0-0.978l-2.505-2.505c-0.27-0.271-0.707-0.271-0.979 0-0.27 0.27-0.27 0.708 0 0.978l2.506 2.505c0.135 0.135 0.312 0.203 0.488 0.203C293.548 222.301 293.725 222.233 293.86 222.098z" fill="#000000" data-fill-palette-color="accent"></path><path d="M287.311 216.526c0.135 0.135 0.312 0.202 0.488 0.202 0.178 0 0.354-0.067 0.489-0.202 0.271-0.271 0.271-0.708 0-0.978l-2.505-2.505c-0.27-0.271-0.708-0.271-0.979 0-0.27 0.27-0.27 0.708 0 0.978L287.311 216.526z" fill="#000000" data-fill-palette-color="accent"></path><path d="M290.865 216.728c0.177 0 0.354-0.067 0.489-0.202l2.505-2.505c0.271-0.271 0.271-0.708 0-0.978-0.27-0.271-0.708-0.271-0.978 0l-2.505 2.505c-0.271 0.27-0.271 0.708 0 0.978C290.512 216.661 290.689 216.728 290.865 216.728z" fill="#000000" data-fill-palette-color="accent"></path><path d="M285.294 222.3c0.177 0 0.354-0.067 0.489-0.202l2.505-2.505c0.271-0.271 0.271-0.708 0-0.979-0.27-0.27-0.708-0.27-0.978 0l-2.506 2.505c-0.27 0.27-0.27 0.708 0 0.979C284.94 222.233 285.117 222.3 285.294 222.3z" fill="#000000" data-fill-palette-color="accent"></path><path d="M294.14 268.64c-0.27-0.271-0.707-0.271-0.978 0-0.271 0.27-0.271 0.708 0 0.978l2.505 2.506c0.135 0.135 0.313 0.202 0.489 0.202s0.354-0.067 0.489-0.202c0.271-0.271 0.271-0.709 0-0.979L294.14 268.64z" fill="#000000" data-fill-palette-color="accent"></path><path d="M288.569 263.069c-0.27-0.271-0.707-0.271-0.978 0-0.271 0.27-0.271 0.707 0 0.977l2.505 2.507c0.135 0.135 0.313 0.202 0.489 0.202s0.354-0.067 0.489-0.202c0.271-0.271 0.271-0.709 0-0.979L288.569 263.069z" fill="#000000" data-fill-palette-color="accent"></path><path d="M293.162 266.552c0.136 0.135 0.313 0.202 0.489 0.202 0.178 0 0.354-0.067 0.489-0.202l2.505-2.507c0.271-0.27 0.271-0.708 0-0.977-0.271-0.271-0.709-0.271-0.979 0l-2.504 2.505C292.892 265.844 292.892 266.281 293.162 266.552z" fill="#000000" data-fill-palette-color="accent"></path><path d="M290.096 268.64l-2.505 2.505c-0.271 0.27-0.271 0.708 0 0.979 0.135 0.135 0.312 0.202 0.489 0.202 0.177 0 0.354-0.067 0.488-0.202l2.506-2.506c0.27-0.27 0.27-0.708 0-0.978C290.804 268.37 290.365 268.37 290.096 268.64z" fill="#000000" data-fill-palette-color="accent"></path></g></svg></g></svg></g></svg></g><defs></defs></svg><rect width="395.5199999999999" height="70.18334000673927" fill="none" stroke="none" visibility="hidden"></rect></g></svg></g></svg>